<?xml version="1.0" standalone="no"?>
<!DOCTYPE svg PUBLIC "-//W3C//DTD SVG 20010904//EN"
 "http://www.w3.org/TR/2001/REC-SVG-20010904/DTD/svg10.dtd">
<svg version="1.0" xmlns="http://www.w3.org/2000/svg"
 width="1200.000000pt" height="1200.000000pt" viewBox="0 0 1200.000000 1200.000000"
 preserveAspectRatio="xMidYMid meet">

<g transform="translate(0.000000,1200.000000) scale(0.100000,-0.100000)"
fill="#000000" stroke="none">
<path d="M5710 11914 c-699 -45 -1232 -153 -1793 -360 -1589 -589 -2839 -1808
-3460 -3374 -353 -889 -484 -1847 -382 -2796 214 -1992 1423 -3739 3215 -4643
694 -351 1403 -550 2210 -622 188 -17 742 -17 930 0 807 72 1516 271 2210 622
1012 511 1848 1292 2427 2269 646 1090 923 2366 788 3626 -214 1992 -1423
3739 -3215 4643 -679 343 -1380 544 -2150 616 -156 15 -660 27 -780 19z m1602
-1921 c39 -54 128 -174 198 -268 69 -93 136 -184 148 -201 l22 -32 -41 -26
c-22 -15 -74 -57 -117 -94 -42 -38 -187 -163 -322 -278 -135 -116 -319 -275
-410 -353 -665 -575 -781 -673 -794 -668 -13 5 -1690 1259 -1778 1330 -21 17
-38 34 -38 38 0 8 183 275 363 532 38 54 72 97 77 95 9 -3 126 -103 430 -363
202 -174 738 -628 783 -664 24 -20 44 -25 106 -28 42 -3 99 -1 127 4 50 8 56
12 465 403 227 217 421 402 429 410 9 8 73 70 142 138 70 67 129 122 132 122
3 0 38 -44 78 -97z m-3176 -698 c54 -49 334 -280 689 -567 165 -134 471 -383
680 -553 209 -170 404 -328 433 -352 31 -25 58 -40 65 -36 14 8 535 460 739
641 422 374 1033 897 1047 897 15 0 180 -210 181 -230 0 -5 -17 -21 -38 -34
-97 -63 -357 -264 -537 -416 -110 -93 -328 -277 -485 -409 -157 -132 -341
-287 -410 -345 -69 -58 -185 -157 -259 -221 -172 -149 -174 -150 -243 -150
-49 0 -62 4 -97 33 -22 17 -465 362 -983 766 -519 404 -954 744 -967 757 l-24
22 84 116 c46 63 85 116 85 116 1 0 19 -16 40 -35z m-342 -919 c133 -68 354
-181 491 -251 252 -129 452 -231 755 -388 610 -315 818 -419 854 -427 60 -14
164 -12 227 4 46 12 396 188 929 468 168 88 1060 542 1234 629 l149 73 16 -24
c29 -44 383 -524 402 -546 11 -11 19 -25 19 -30 0 -10 -581 -301 -885 -443
-108 -51 -151 -67 -157 -58 -7 11 -12 3 -10 -14 1 -4 -218 -108 -486 -232
-268 -124 -648 -300 -846 -392 l-358 -167 -117 7 c-138 8 -111 -3 -686 280
-209 103 -429 211 -490 240 -60 29 -258 126 -440 215 -181 89 -424 208 -540
265 -115 56 -307 150 -426 208 -119 58 -233 113 -253 121 l-37 15 44 58 c24
32 115 160 202 286 86 125 159 227 162 227 4 0 114 -56 247 -124z m-694 -755
c58 -26 515 -238 1017 -469 502 -232 988 -456 1080 -498 92 -42 278 -128 413
-191 265 -125 290 -132 466 -134 78 -2 83 0 210 59 71 33 219 101 329 150 110
49 317 142 460 207 143 65 449 203 680 307 231 105 499 225 595 268 96 43 234
106 305 140 214 102 388 181 395 178 9 -4 184 -237 199 -266 13 -25 22 -19
-104 -67 -33 -13 -152 -62 -265 -110 -320 -136 -812 -345 -1325 -563 -258
-110 -546 -232 -640 -272 -93 -39 -249 -109 -345 -155 -96 -45 -209 -98 -250
-117 -41 -20 -92 -49 -113 -66 -56 -45 -100 -57 -207 -56 -102 0 -124 7 -210
69 -48 34 -387 193 -1330 625 -327 150 -647 296 -710 325 -63 29 -275 126
-470 215 -195 89 -385 176 -421 194 l-67 31 86 123 c48 68 93 122 101 122 9 0
63 -22 121 -49z m2167 -1614 c130 -24 234 -63 377 -141 108 -58 166 -115 333
-325 l20 -24 77 97 c43 53 90 103 105 110 14 8 55 37 91 66 70 56 88 65 259
135 201 81 35 75 1968 75 l1732 0 306 -402 307 -403 -2221 -5 -2221 -5 -137
-137 c-168 -168 -204 -186 -308 -157 -32 9 -71 41 -186 155 l-145 144 -2191
-2 -2191 -3 15 29 c12 23 292 429 520 754 l44 63 1677 -4 c1531 -2 1685 -4
1769 -20z m393 -1111 c19 -10 99 -81 178 -158 182 -180 162 -180 351 5 105
103 148 138 186 153 49 18 110 19 2359 22 1848 2 2312 0 2324 -10 8 -7 44 -51
79 -98 l64 -85 -2324 -3 -2324 -2 -161 -164 c-187 -192 -184 -190 -367 -191
-171 0 -190 10 -379 203 l-149 152 -2292 2 -2292 3 69 98 69 97 2287 -2 c2213
-3 2288 -4 2322 -22z m-1864 -1026 l94 0 0 -225 0 -225 240 0 240 0 0 224 c0
124 3 226 8 228 4 2 60 2 125 0 l117 -3 -2 -577 -3 -577 -122 -3 -123 -3 0
256 0 255 -240 0 -240 0 -2 -252 -3 -253 -120 0 -120 0 -3 584 -2 584 31 -7
c17 -3 74 -6 125 -6z m1605 -370 c128 -195 234 -361 236 -367 18 -47 23 28 23
362 l0 375 115 0 115 0 0 -581 0 -581 -126 4 c-110 3 -128 5 -138 21 -6 10
-86 132 -177 270 -91 139 -196 298 -232 355 -37 56 -70 102 -72 102 -3 0 -5
-168 -5 -372 l1 -373 -113 0 -113 0 -3 577 -2 577 112 3 c63 2 121 -1 131 -7
9 -5 121 -170 248 -365z m1035 -23 c0 -216 3 -409 8 -430 9 -47 59 -105 111
-128 52 -24 189 -26 243 -3 53 22 91 62 103 109 7 26 12 184 13 443 l1 403
125 -3 125 -3 0 -405 c-1 -427 -6 -484 -47 -567 -31 -62 -113 -135 -184 -161
-83 -32 -192 -45 -313 -37 -121 8 -201 30 -271 75 -100 64 -145 150 -160 309
-13 131 -13 788 0 793 5 2 63 2 127 0 l118 -3 1 -392z m1934 301 l0 -98 -330
0 -330 0 0 -130 0 -130 305 0 305 0 0 -100 0 -100 -305 0 -305 0 0 -155 0
-155 345 0 345 0 0 -100 0 -99 -447 0 c-247 0 -458 2 -470 5 l-23 6 0 577 0
577 455 0 455 1 0 -99z m-6318 -766 c52 -54 102 -114 111 -134 49 -104 -21
-261 -145 -322 -107 -54 -175 -30 -321 113 l-102 100 74 75 c74 75 75 75 56
96 -16 18 -17 23 -5 31 40 27 48 29 54 14 10 -27 31 -16 101 55 38 39 72 70
76 70 4 0 49 -44 101 -98z m8062 41 c34 -32 112 -107 175 -166 l114 -109 -41
-41 -41 -41 -171 169 c-93 93 -170 174 -170 179 0 13 51 66 64 66 5 0 37 -26
70 -57z m-367 -166 c-16 -12 -51 -44 -78 -72 l-49 -50 16 47 c18 53 29 65 81
84 54 19 62 16 30 -9z m251 -33 c52 -26 105 -81 136 -141 23 -46 21 -137 -4
-189 -25 -52 -96 -119 -153 -145 -47 -21 -130 -25 -174 -8 -91 34 -173 157
-173 257 0 181 206 307 368 226z m-7516 -230 c21 -15 38 -33 38 -42 0 -8 -9
-45 -20 -81 -10 -36 -39 -144 -64 -240 -25 -95 -47 -176 -50 -179 -3 -2 -22 8
-43 24 -20 16 -40 31 -45 34 -4 3 -1 28 8 55 8 28 13 55 12 61 -2 6 -37 38
-79 71 l-75 60 -45 -23 c-24 -13 -49 -23 -55 -24 -6 0 -29 16 -52 36 l-43 36
193 98 c106 54 211 107 233 119 21 11 41 21 44 21 3 0 22 -12 43 -26z m7142
-223 c80 -101 146 -188 146 -192 0 -13 -74 -69 -92 -69 -18 0 -96 25 -251 79
-49 17 -91 31 -95 31 -3 0 6 -12 20 -27 27 -29 147 -198 151 -213 1 -4 -17
-22 -40 -38 -38 -28 -42 -29 -55 -14 -32 37 -258 379 -258 389 0 6 16 21 36
34 43 26 37 27 249 -49 77 -28 140 -50 142 -49 1 1 -40 56 -92 122 l-94 120
37 32 c20 18 40 32 44 30 4 -1 72 -85 152 -186z m524 -56 c-21 -19 -43 -35
-50 -34 -7 0 -24 14 -37 30 l-24 30 39 40 38 39 36 -35 35 -36 -37 -34z
m-7367 53 c22 -12 38 -27 37 -34 -2 -7 -64 -100 -138 -207 l-135 -195 -43 30
c-24 17 -41 36 -39 42 3 7 56 84 119 172 62 88 121 171 131 187 9 15 20 27 23
27 4 0 24 -10 45 -22z m-618 -199 l37 -30 -26 -35 c-15 -19 -30 -34 -35 -34
-5 0 -26 15 -46 33 l-36 34 19 31 c23 40 40 40 87 1z m979 -98 c-14 -26 -36
-61 -48 -80 -13 -19 -21 -38 -18 -42 6 -10 175 -102 179 -97 2 1 22 38 45 81
23 42 46 77 51 77 9 0 68 -28 78 -36 3 -3 -205 -420 -216 -433 -2 -3 -26 6
-53 20 l-49 24 50 89 c27 48 46 92 44 97 -3 5 -44 29 -91 55 -69 38 -88 44
-95 33 -5 -8 -28 -47 -51 -86 -24 -40 -47 -73 -52 -73 -19 0 -76 43 -76 57 0
9 55 105 122 213 l121 198 43 -26 43 -26 -27 -45z m5543 65 l39 -33 -23 -13
c-19 -10 -34 -9 -85 5 -33 10 -65 20 -70 23 -9 5 70 51 89 51 6 1 28 -14 50
-33z m338 -284 c70 -53 126 -101 124 -107 -2 -5 -22 -20 -45 -33 l-42 -23 -46
35 -46 35 -81 -44 -82 -44 -1 -62 -1 -62 -44 -23 c-24 -13 -47 -23 -50 -24 -4
0 -9 44 -13 98 -4 53 -16 169 -26 257 -22 178 -23 170 45 200 28 12 32 11 105
-47 41 -33 132 -103 203 -156z m-387 -367 c4 -16 -4 -25 -40 -43 l-46 -22 -15
37 c-52 125 -69 154 -84 150 -9 -3 -52 -21 -96 -41 -58 -26 -79 -40 -77 -52 2
-9 19 -51 38 -94 19 -43 34 -81 34 -83 0 -11 -91 -40 -99 -31 -4 5 -41 92 -81
194 -40 102 -80 200 -87 218 -13 31 -12 33 12 42 71 27 69 29 105 -64 18 -47
35 -86 38 -86 2 0 46 18 97 41 l93 40 -39 84 c-21 45 -39 87 -39 92 0 5 19 15
43 24 l42 15 98 -201 c54 -110 100 -209 103 -220z m-4949 370 c75 -22 126 -65
158 -130 24 -48 27 -64 22 -114 -13 -147 -115 -260 -234 -261 -91 0 -205 65
-243 141 -65 127 28 326 171 368 49 13 69 13 126 -4z m536 -206 c72 -20 156
-120 157 -186 0 -25 -5 -26 -62 -17 -30 5 -38 12 -43 35 -4 15 -22 42 -41 59
-44 38 -116 42 -159 8 -39 -30 -75 -113 -75 -172 0 -41 5 -53 33 -81 19 -19
48 -36 69 -40 44 -8 108 17 115 45 3 11 7 20 10 20 9 0 93 -63 93 -70 0 -12
-54 -57 -89 -75 -69 -35 -216 0 -278 67 -100 107 -51 328 90 397 47 23 119 27
180 10z m3654 -234 c40 -121 73 -223 73 -226 0 -8 -91 -41 -97 -36 -2 2 -28
78 -58 168 l-54 164 5 -140 c2 -77 7 -159 10 -182 l5 -41 -55 -16 c-30 -9 -56
-16 -59 -16 -7 0 -134 221 -163 285 -13 27 -24 46 -24 40 0 -5 19 -86 41 -179
33 -134 39 -170 28 -176 -16 -11 -80 -23 -85 -17 -6 5 -114 444 -114 461 0 7
26 17 58 24 31 7 66 15 78 18 18 5 29 -9 79 -98 32 -57 69 -119 83 -138 l24
-35 -6 162 -6 162 62 20 c35 11 72 19 82 18 16 -2 33 -42 93 -222z m-2956 38
c53 -28 79 -66 82 -120 2 -38 2 -38 -33 -34 -44 4 -70 17 -70 36 0 8 -9 24
-20 35 -26 26 -117 29 -127 4 -10 -27 10 -47 92 -90 42 -23 91 -55 107 -71 57
-57 47 -160 -20 -211 -31 -24 -44 -27 -111 -27 -64 0 -85 5 -136 30 -49 24
-64 38 -82 75 -13 24 -23 59 -23 77 0 29 3 33 28 33 50 0 71 -11 77 -40 10
-47 70 -90 125 -90 30 0 80 37 80 59 0 18 -30 40 -111 82 -121 63 -156 123
-120 204 38 85 153 107 262 48z m2308 -218 c76 -116 136 -213 133 -217 -4 -3
-28 -9 -54 -13 l-47 -7 -28 46 c-15 25 -35 46 -43 46 -8 -1 -53 -9 -100 -18
l-85 -18 -10 -54 c-11 -58 -22 -67 -91 -69 l-31 -1 23 98 c13 53 38 167 55
254 l32 156 46 9 c25 5 49 7 53 3 5 -3 71 -100 147 -215z m-2003 170 c8 -2 5
-40 -7 -127 -27 -180 -28 -241 -5 -266 24 -28 95 -38 132 -20 33 16 39 35 53
181 22 222 18 207 56 207 65 0 67 -3 59 -96 -8 -95 2 -106 50 -58 33 33 33 44
1 44 -23 0 -25 3 -25 50 l0 50 51 0 51 0 -4 -76 c-3 -68 -6 -79 -31 -100 -15
-13 -45 -29 -66 -35 l-39 -12 -7 -66 c-15 -143 -58 -186 -185 -186 -135 1
-220 65 -220 166 0 41 30 266 45 336 4 19 10 21 43 17 20 -3 42 -7 48 -9z
m1527 -37 c15 -90 60 -449 56 -452 -2 -2 -25 -6 -51 -8 -45 -5 -46 -5 -52 26
-4 17 -9 64 -13 105 l-6 73 -71 -6 c-39 -4 -86 -10 -104 -13 l-34 -6 7 -102 7
-103 -51 -3 -51 -4 -4 40 c-5 44 -26 397 -26 433 0 20 5 22 50 22 l50 0 0 -42
c0 -24 3 -67 7 -96 l6 -54 71 7 c39 3 84 8 99 11 l28 6 -6 66 c-3 37 -8 79
-11 94 -6 29 4 35 62 37 28 1 32 -3 37 -31z m-3249 -18 c25 -10 46 -23 46 -28
0 -5 -7 -26 -15 -46 l-15 -36 -43 17 c-23 9 -46 19 -50 23 -7 6 20 90 28 90 2
0 24 -9 49 -20z m2711 -19 c88 -51 89 -190 2 -255 -23 -17 -46 -22 -123 -24
l-94 -4 0 -94 0 -94 -57 0 -56 0 6 143 c4 78 7 189 7 247 l0 105 142 -3 c113
-3 149 -7 173 -21z m983 -433 c6 -24 8 -46 4 -49 -4 -4 -28 -11 -54 -17 -43
-9 -47 -8 -52 12 -3 11 -6 33 -6 48 0 26 15 34 91 47 4 1 11 -18 17 -41z"/>
<path d="M1916 2931 c-45 -46 -43 -66 10 -106 l35 -27 -22 -24 -23 -24 -41 40
c-22 22 -45 40 -50 40 -5 0 -26 -16 -46 -36 l-38 -37 26 -33 c43 -57 102 -94
147 -94 37 0 46 6 103 66 73 76 80 108 38 179 -19 34 -82 95 -97 95 -2 0 -21
-18 -42 -39z"/>
<path d="M9813 2770 c-98 -44 -112 -163 -30 -248 42 -44 78 -62 124 -62 46 0
106 37 128 80 20 38 19 99 -2 130 -67 101 -143 136 -220 100z"/>
<path d="M2322 2477 l-74 -42 49 -42 c26 -23 51 -39 55 -35 8 9 51 153 46 157
-2 2 -36 -15 -76 -38z"/>
<path d="M8760 1951 c0 -19 22 -156 25 -159 5 -5 105 52 105 59 0 3 -21 23
-47 45 -80 66 -83 68 -83 55z"/>
<path d="M3596 1799 c-89 -26 -154 -181 -107 -256 22 -34 86 -73 122 -73 39 0
100 43 127 90 35 58 38 156 7 190 -38 42 -101 63 -149 49z"/>
<path d="M7046 1300 c-3 -22 -9 -58 -12 -81 l-6 -41 43 7 c83 14 82 12 36 87
-23 37 -45 68 -49 68 -3 0 -9 -18 -12 -40z"/>
<path d="M6000 1225 l0 -65 33 0 c59 1 121 18 135 37 15 20 9 72 -11 85 -6 4
-45 8 -84 8 l-73 0 0 -65z"/>
</g>
</svg>
