<?xml version="1.0" standalone="no"?>
<!DOCTYPE svg PUBLIC "-//W3C//DTD SVG 20010904//EN"
 "http://www.w3.org/TR/2001/REC-SVG-20010904/DTD/svg10.dtd">
<svg version="1.0" xmlns="http://www.w3.org/2000/svg"
 width="32.000000pt" height="32.000000pt" viewBox="0 0 32.000000 32.000000"
 preserveAspectRatio="xMidYMid meet">

<g transform="translate(0.000000,32.000000) scale(0.100000,-0.100000)"
fill="#000000" stroke="none">
<path d="M115 297 c-47 -22 -67 -52 -73 -105 -5 -54 15 -104 48 -122 11 -6 20
-16 20 -23 0 -7 4 -19 10 -27 8 -12 11 -12 27 2 10 9 35 19 56 23 21 4 48 16
60 26 20 16 21 19 6 34 -15 16 -19 16 -49 0 -58 -30 -120 6 -120 70 0 68 73
108 127 70 18 -13 22 -12 37 4 15 16 15 19 -4 36 -26 23 -106 30 -145 12z"/>
</g>
</svg>
